<mxfile host="app.diagrams.net" modified="2020-10-31T06:02:00.800Z" agent="5.0 (Macintosh; Intel Mac OS X 10_15_5) AppleWebKit/537.36 (KHTML, like Gecko) Chrome/85.0.4183.102 Safari/537.36" etag="8Esa8HpYshRfDeMxyZfL" version="13.8.8" type="github">
  <diagram id="0raRz7EB_-TE2jCiv5vr" name="第 1 页">
    <mxGraphModel dx="1773" dy="1741" grid="1" gridSize="10" guides="1" tooltips="1" connect="1" arrows="1" fold="1" page="1" pageScale="1" pageWidth="827" pageHeight="1169" math="0" shadow="0">
      <root>
        <mxCell id="0" />
        <mxCell id="1" parent="0" />
        <mxCell id="70uIi8wg0RQgTNvfhjLm-50" value="" style="rounded=0;whiteSpace=wrap;html=1;shadow=0;sketch=0;" vertex="1" parent="1">
          <mxGeometry x="40" y="110" width="470" height="440" as="geometry" />
        </mxCell>
        <mxCell id="70uIi8wg0RQgTNvfhjLm-43" value="" style="rounded=0;whiteSpace=wrap;html=1;" vertex="1" parent="1">
          <mxGeometry x="-480" y="110" width="470" height="440" as="geometry" />
        </mxCell>
        <mxCell id="70uIi8wg0RQgTNvfhjLm-16" value="&lt;font face=&quot;Comic Sans MS&quot; style=&quot;font-size: 14px&quot;&gt;Normal Pod的dnsPolicy=ClusterFirst&lt;/font&gt;" style="text;html=1;resizable=0;autosize=1;align=center;verticalAlign=middle;points=[];fillColor=none;strokeColor=none;rounded=0;" vertex="1" parent="1">
          <mxGeometry x="90" y="-60" width="250" height="20" as="geometry" />
        </mxCell>
        <mxCell id="70uIi8wg0RQgTNvfhjLm-33" value="" style="edgeStyle=orthogonalEdgeStyle;rounded=0;orthogonalLoop=1;jettySize=auto;html=1;" edge="1" parent="1" source="70uIi8wg0RQgTNvfhjLm-23" target="70uIi8wg0RQgTNvfhjLm-32">
          <mxGeometry relative="1" as="geometry" />
        </mxCell>
        <mxCell id="70uIi8wg0RQgTNvfhjLm-23" value="&lt;font face=&quot;Comic Sans MS&quot;&gt;CoreDNS服务&lt;/font&gt;" style="rounded=0;whiteSpace=wrap;html=1;" vertex="1" parent="1">
          <mxGeometry x="-210" y="170" width="120" height="60" as="geometry" />
        </mxCell>
        <mxCell id="70uIi8wg0RQgTNvfhjLm-25" value="完成内部域名解析" style="whiteSpace=wrap;html=1;rounded=0;" vertex="1" parent="1">
          <mxGeometry x="-420" y="265" width="120" height="60" as="geometry" />
        </mxCell>
        <mxCell id="70uIi8wg0RQgTNvfhjLm-31" value="" style="edgeStyle=orthogonalEdgeStyle;rounded=0;orthogonalLoop=1;jettySize=auto;html=1;" edge="1" parent="1" source="70uIi8wg0RQgTNvfhjLm-28" target="70uIi8wg0RQgTNvfhjLm-30">
          <mxGeometry relative="1" as="geometry" />
        </mxCell>
        <mxCell id="70uIi8wg0RQgTNvfhjLm-59" style="edgeStyle=orthogonalEdgeStyle;rounded=0;orthogonalLoop=1;jettySize=auto;html=1;exitX=0;exitY=0.5;exitDx=0;exitDy=0;" edge="1" parent="1" source="70uIi8wg0RQgTNvfhjLm-28" target="70uIi8wg0RQgTNvfhjLm-53">
          <mxGeometry relative="1" as="geometry" />
        </mxCell>
        <mxCell id="70uIi8wg0RQgTNvfhjLm-28" value="&lt;span&gt;&lt;font face=&quot;Comic Sans MS&quot;&gt;/etc/resolv.conf查找dns服务器&lt;/font&gt;&lt;/span&gt;" style="whiteSpace=wrap;html=1;rounded=0;" vertex="1" parent="1">
          <mxGeometry x="-210" y="370" width="120" height="60" as="geometry" />
        </mxCell>
        <mxCell id="70uIi8wg0RQgTNvfhjLm-67" value="" style="edgeStyle=orthogonalEdgeStyle;rounded=0;orthogonalLoop=1;jettySize=auto;html=1;" edge="1" parent="1" source="70uIi8wg0RQgTNvfhjLm-30" target="70uIi8wg0RQgTNvfhjLm-66">
          <mxGeometry relative="1" as="geometry" />
        </mxCell>
        <mxCell id="70uIi8wg0RQgTNvfhjLm-30" value="&lt;font face=&quot;Comic Sans MS&quot;&gt;发送DNS请求到DNS服务器&lt;/font&gt;" style="whiteSpace=wrap;html=1;rounded=0;" vertex="1" parent="1">
          <mxGeometry x="-210" y="470" width="120" height="60" as="geometry" />
        </mxCell>
        <mxCell id="70uIi8wg0RQgTNvfhjLm-34" value="" style="edgeStyle=orthogonalEdgeStyle;rounded=0;orthogonalLoop=1;jettySize=auto;html=1;" edge="1" parent="1" source="70uIi8wg0RQgTNvfhjLm-32" target="70uIi8wg0RQgTNvfhjLm-28">
          <mxGeometry relative="1" as="geometry" />
        </mxCell>
        <mxCell id="70uIi8wg0RQgTNvfhjLm-35" value="" style="edgeStyle=orthogonalEdgeStyle;rounded=0;orthogonalLoop=1;jettySize=auto;html=1;" edge="1" parent="1" source="70uIi8wg0RQgTNvfhjLm-32" target="70uIi8wg0RQgTNvfhjLm-25">
          <mxGeometry relative="1" as="geometry" />
        </mxCell>
        <mxCell id="70uIi8wg0RQgTNvfhjLm-32" value="是否为集群内部域名" style="rhombus;whiteSpace=wrap;html=1;rounded=0;" vertex="1" parent="1">
          <mxGeometry x="-220" y="260" width="140" height="70" as="geometry" />
        </mxCell>
        <mxCell id="70uIi8wg0RQgTNvfhjLm-36" value="是" style="text;html=1;resizable=0;autosize=1;align=center;verticalAlign=middle;points=[];fillColor=none;strokeColor=none;rounded=0;" vertex="1" parent="1">
          <mxGeometry x="-270" y="270" width="30" height="20" as="geometry" />
        </mxCell>
        <mxCell id="70uIi8wg0RQgTNvfhjLm-37" value="否" style="text;html=1;resizable=0;autosize=1;align=center;verticalAlign=middle;points=[];fillColor=none;strokeColor=none;rounded=0;" vertex="1" parent="1">
          <mxGeometry x="-190" y="330" width="30" height="20" as="geometry" />
        </mxCell>
        <mxCell id="70uIi8wg0RQgTNvfhjLm-40" value="" style="edgeStyle=orthogonalEdgeStyle;rounded=0;orthogonalLoop=1;jettySize=auto;html=1;" edge="1" parent="1" source="70uIi8wg0RQgTNvfhjLm-38" target="70uIi8wg0RQgTNvfhjLm-39">
          <mxGeometry relative="1" as="geometry" />
        </mxCell>
        <mxCell id="70uIi8wg0RQgTNvfhjLm-38" value="&lt;font face=&quot;Comic Sans MS&quot;&gt;发起域名解析请求&lt;/font&gt;" style="rounded=0;whiteSpace=wrap;html=1;" vertex="1" parent="1">
          <mxGeometry x="200" y="210" width="120" height="60" as="geometry" />
        </mxCell>
        <mxCell id="70uIi8wg0RQgTNvfhjLm-42" value="" style="edgeStyle=orthogonalEdgeStyle;rounded=0;orthogonalLoop=1;jettySize=auto;html=1;" edge="1" parent="1" source="70uIi8wg0RQgTNvfhjLm-39" target="70uIi8wg0RQgTNvfhjLm-41">
          <mxGeometry relative="1" as="geometry" />
        </mxCell>
        <mxCell id="70uIi8wg0RQgTNvfhjLm-39" value="&lt;span&gt;&lt;font face=&quot;Comic Sans MS&quot;&gt;/etc/resolv.conf查找dns服务器&lt;/font&gt;&lt;/span&gt;" style="whiteSpace=wrap;html=1;rounded=0;" vertex="1" parent="1">
          <mxGeometry x="200" y="300" width="120" height="60" as="geometry" />
        </mxCell>
        <mxCell id="70uIi8wg0RQgTNvfhjLm-47" style="edgeStyle=orthogonalEdgeStyle;rounded=0;orthogonalLoop=1;jettySize=auto;html=1;exitX=0;exitY=0.5;exitDx=0;exitDy=0;entryX=1;entryY=0.5;entryDx=0;entryDy=0;curved=1;" edge="1" parent="1" source="70uIi8wg0RQgTNvfhjLm-41" target="70uIi8wg0RQgTNvfhjLm-23">
          <mxGeometry relative="1" as="geometry" />
        </mxCell>
        <mxCell id="70uIi8wg0RQgTNvfhjLm-41" value="&lt;font face=&quot;Comic Sans MS&quot;&gt;发送DNS请求到KubeDNS&lt;/font&gt;" style="whiteSpace=wrap;html=1;rounded=0;" vertex="1" parent="1">
          <mxGeometry x="200" y="410" width="120" height="60" as="geometry" />
        </mxCell>
        <mxCell id="70uIi8wg0RQgTNvfhjLm-44" value="&lt;font face=&quot;Comic Sans MS&quot; style=&quot;font-size: 14px&quot;&gt;&lt;b&gt;KubeDNS&lt;/b&gt;&lt;/font&gt;" style="text;html=1;resizable=0;autosize=1;align=center;verticalAlign=middle;points=[];fillColor=none;strokeColor=none;rounded=0;" vertex="1" parent="1">
          <mxGeometry x="-460" y="130" width="80" height="20" as="geometry" />
        </mxCell>
        <mxCell id="70uIi8wg0RQgTNvfhjLm-46" value="&lt;font face=&quot;Comic Sans MS&quot; style=&quot;font-size: 14px&quot;&gt;&lt;b&gt;Pod&lt;/b&gt;&lt;/font&gt;" style="text;html=1;resizable=0;autosize=1;align=center;verticalAlign=middle;points=[];fillColor=none;strokeColor=none;rounded=0;" vertex="1" parent="1">
          <mxGeometry x="80" y="120" width="40" height="20" as="geometry" />
        </mxCell>
        <mxCell id="70uIi8wg0RQgTNvfhjLm-52" value="&lt;font face=&quot;Comic Sans MS&quot; style=&quot;font-size: 14px&quot;&gt;Normal Pod的dnsPolicy=Default&lt;/font&gt;" style="text;html=1;resizable=0;autosize=1;align=center;verticalAlign=middle;points=[];fillColor=none;strokeColor=none;rounded=0;" vertex="1" parent="1">
          <mxGeometry x="-250" y="-50" width="220" height="20" as="geometry" />
        </mxCell>
        <mxCell id="70uIi8wg0RQgTNvfhjLm-53" value="&lt;font face=&quot;Comic Sans MS&quot; style=&quot;font-size: 12px&quot;&gt;Node的DNS服务配置&lt;span style=&quot;color: rgb(18 , 18 , 18) ; background-color: rgb(255 , 255 , 255)&quot;&gt;/run/systemd/resolve/resolv.conf&lt;/span&gt;&lt;/font&gt;" style="rounded=0;whiteSpace=wrap;html=1;" vertex="1" parent="1">
          <mxGeometry x="-470" y="620" width="230" height="70" as="geometry" />
        </mxCell>
        <mxCell id="70uIi8wg0RQgTNvfhjLm-55" style="edgeStyle=orthogonalEdgeStyle;rounded=0;orthogonalLoop=1;jettySize=auto;html=1;entryX=0.5;entryY=0;entryDx=0;entryDy=0;curved=1;exitX=0.5;exitY=1;exitDx=0;exitDy=0;" edge="1" parent="1" source="70uIi8wg0RQgTNvfhjLm-54" target="70uIi8wg0RQgTNvfhjLm-43">
          <mxGeometry relative="1" as="geometry">
            <mxPoint x="-10" y="-100" as="sourcePoint" />
          </mxGeometry>
        </mxCell>
        <mxCell id="70uIi8wg0RQgTNvfhjLm-56" style="edgeStyle=orthogonalEdgeStyle;rounded=0;orthogonalLoop=1;jettySize=auto;html=1;exitX=0.5;exitY=1;exitDx=0;exitDy=0;entryX=0.596;entryY=0;entryDx=0;entryDy=0;entryPerimeter=0;curved=1;" edge="1" parent="1" source="70uIi8wg0RQgTNvfhjLm-54" target="70uIi8wg0RQgTNvfhjLm-50">
          <mxGeometry relative="1" as="geometry" />
        </mxCell>
        <mxCell id="70uIi8wg0RQgTNvfhjLm-54" value="&lt;font face=&quot;Comic Sans MS&quot; style=&quot;font-size: 14px&quot;&gt;&lt;b&gt;Kubelet&lt;/b&gt;&lt;/font&gt;" style="rounded=0;whiteSpace=wrap;html=1;" vertex="1" parent="1">
          <mxGeometry x="-60" y="-160" width="160" height="60" as="geometry" />
        </mxCell>
        <mxCell id="70uIi8wg0RQgTNvfhjLm-66" value="&lt;font face=&quot;Comic Sans MS&quot;&gt;外部DNS服务&lt;/font&gt;" style="whiteSpace=wrap;html=1;rounded=0;" vertex="1" parent="1">
          <mxGeometry x="-130" y="690" width="120" height="60" as="geometry" />
        </mxCell>
      </root>
    </mxGraphModel>
  </diagram>
</mxfile>
